<svg width="501" height="565" viewBox="0 0 501 565" fill="none" xmlns="http://www.w3.org/2000/svg">
<g clip-path="url(#clip0_46_190)">
<path d="M66.2 499.16C70.4 491.76 72.6 483.56 75.7 475.66C76.5 473.66 75.8 471.96 74.9 470.16C79.7 455.26 84.8 440.56 89.3 425.56C97.5 398.56 106.2 371.76 116.5 345.46C124.2 325.86 131.7 306.06 139 286.36C140.8 281.46 142.3 276.46 143.3 271.36C145 263.06 143.8 254.96 139.6 247.56C134.8 239.06 126.9 235.16 117.9 232.76C108.8 230.36 101.3 232.96 94.4 238.86C87.5 244.76 83.5 252.46 80.3 260.76C77 269.16 73.9 277.66 70.5 286.06C69.4 288.86 68.7 291.86 65.9 293.56C65.8 285.86 65.5 278.26 65.6 270.56C65.7 263.96 67.2 257.46 69.4 251.26C75.2 234.96 83.2 219.66 91.9 204.66C92.7 203.26 94 202.16 95 200.86C97.6 202.46 100.2 203.96 102.7 205.56C120.5 216.96 138.2 228.36 156 239.76C158.5 241.36 160.9 243.36 163.9 244.06C169.4 248.06 175.7 249.16 182.3 249.16C186 250.86 187.7 254.36 189.4 257.76C192.5 263.76 195.5 269.86 198.5 275.86C200 278.76 201.3 281.76 203.6 284.06C204.1 286.16 204.3 288.36 205.1 290.36C209.4 301.26 210.9 312.66 210.9 324.16C211 377.86 210.9 498.96 210.9 498.96L66.2 499.16Z" fill="#2E5BAA"/>
<path d="M65.9 293.56C68.8 291.86 69.4 288.76 70.5 286.06C73.8 277.66 76.9 269.16 80.3 260.76C83.5 252.56 87.5 244.76 94.4 238.86C101.3 232.96 108.8 230.36 117.9 232.76C126.9 235.16 134.8 239.06 139.6 247.56C143.8 255.06 145.1 263.06 143.3 271.36C142.3 276.46 140.8 281.46 139 286.36C131.6 306.16 124.2 325.86 116.5 345.46C106.2 371.76 97.4 398.56 89.3 425.56C84.8 440.46 79.7 455.26 74.9 470.16C72.3 469.26 69.7 468.46 67.2 467.46C54.4 462.66 41.7 457.86 28.9 453.06C25.8 451.66 24.5 449.66 25.3 445.96C27.5 436.36 29.2 426.66 31.2 417.06C34.9 399.36 38.7 381.76 42.3 364.06C44.2 354.36 48.2 345.36 51.6 336.06C54.8 327.36 58.2 318.66 61.6 310.06C63.7 304.76 65.4 299.26 65.9 293.56Z" fill="#3472D5"/>
<path d="M98.1 142.26C97 140.06 95.7 137.96 94.8 135.66C88.3 119.36 81.7 103.06 75.6 86.5596C69.2 69.3596 69.7 52.0596 76.8 35.1596C84.4 17.1596 98.2 6.35958 117.1 2.05958C127.7 -0.340421 138.3 -0.140421 149 1.05958C165.9 2.95958 182.7 5.05958 199.6 7.05958C203.1 7.45958 206.7 8.05958 210.2 8.45958C217.7 9.45958 221.3 16.0596 220.4 22.8596C220 25.8596 218.9 28.7596 217.1 31.1596C215.8 32.8596 214.3 34.4596 212.9 36.1596C201.7 40.5596 190.6 45.2596 179.3 49.3596C171.5 52.1596 167.9 57.4596 167.8 65.4596C167.7 70.9596 167.8 76.4596 167.7 81.8596C167.7 87.3596 167.8 92.8596 167.5 98.2596C167.2 103.36 163.3 105.26 158.8 102.76C156.8 101.66 155.3 100.06 154.4 98.0596C153.7 96.5596 153.1 95.0596 152.6 93.4596C151.9 91.3596 151 89.3596 149.5 87.7596C145.9 83.8596 141.4 82.2596 136.2 83.1596C131 84.0596 128.1 87.3596 127.1 92.4596C126.8 93.7596 126.5 95.1596 126.2 96.4596C124 104.96 121.9 113.46 119.6 121.86C118.7 124.96 117.5 128.16 115.9 130.96C112 138.06 106.6 142.76 98.1 142.26Z" fill="#2E5BAA"/>
<path d="M203.8 284.159C201.4 281.859 200.1 278.859 198.7 275.959C195.7 269.959 192.7 263.859 189.6 257.859C187.9 254.559 186.1 251.059 182.5 249.259C181.2 244.059 177.4 240.259 175 235.759C173.5 232.959 170.9 230.559 170.8 227.059C187.3 224.359 203.8 221.659 220.3 218.959C227.6 217.759 234.9 216.159 242.2 215.259C246.9 214.659 250.3 212.459 253.3 208.959C262 198.759 270.9 188.559 279.7 178.459C288.7 168.059 297.6 157.659 306.7 147.359C308.7 145.159 310.4 142.459 313.7 141.959C326.7 154.459 339.8 166.859 352.8 179.359C343.9 189.759 334.9 200.059 326.1 210.459C310.5 228.759 295 247.159 279.5 265.559C277.3 268.159 275.2 270.359 271.6 271.059C248.8 275.159 226.3 279.659 203.8 284.159Z" fill="#234480"/>
<path d="M98.1 142.26C106.6 142.76 112 138.06 115.8 131.16C117.4 128.36 118.6 125.16 119.5 122.06C121.9 113.66 123.9 105.06 126.1 96.6596C126.4 95.3596 126.8 93.9596 127 92.6596C128 87.5596 131 84.2596 136.1 83.3596C141.3 82.4596 145.8 84.0596 149.5 87.9596C151 89.5596 151.9 91.5596 152.6 93.6596C153.1 95.2596 153.6 96.7596 154.4 98.2596C155.4 100.26 156.8 101.86 158.8 102.96C163.3 105.46 167.2 103.56 167.5 98.4596C167.8 92.9596 167.7 87.4596 167.7 82.0596C167.7 76.5596 167.7 71.0596 167.8 65.6596C167.9 57.6596 171.5 52.3596 179.3 49.5596C190.6 45.4596 201.7 40.7596 212.9 36.3596C212 45.3596 211.1 54.3596 210.4 63.3596C208.1 90.1596 205.8 116.96 203.5 143.76C202.9 150.36 201.6 156.76 198.8 162.86C194.4 172.36 186.9 176.86 176.3 176.06C170.5 175.66 164.9 174.56 159.3 172.96C157.5 172.46 155.6 171.86 153.7 171.56C152.1 171.26 151.1 172.16 150.9 173.76C150.7 174.86 150.7 175.96 150.6 177.06C150.6 179.56 150.7 181.96 150.6 184.46C150.2 191.46 151.1 198.16 155.1 204.16C155.5 204.76 155.6 205.76 155.8 206.46C152.3 206.66 149.5 204.76 146.6 203.46C130.4 196.06 114.3 188.66 98.1 181.36V142.26Z" fill="#FFDCC8"/>
<path d="M63.1 499.36C64.1 512.76 63.5 526.16 62.2 539.46C62.1 540.56 62 541.66 61.8 542.76C61 546.76 57.1 548.26 53.7 546.16C51.1 544.56 50.3 542.06 49.8 539.26C49.2 535.66 49.9 532.16 50 528.66C50 527.86 49.9 526.96 48.8 526.96C48.4 526.96 47.8 527.46 47.6 527.86C45.8 531.56 44.1 535.26 42.4 538.96C40 544.16 37.8 549.46 35.2 554.66C31 562.76 23.4 566.46 12 562.96C3.59999 560.36 -0.900007 552.96 0.0999926 543.76C0.299993 541.86 0.699993 539.96 1.19999 538.16C4.19999 525.66 7.19999 513.16 10.1 500.66C11.6 494.06 14.3 488.26 18.9 483.36C22 483.06 24.7 484.46 27.5 485.46C35.6 488.46 43.8 491.56 51.9 494.66C55.7 495.96 59.6 497.16 63.1 499.36Z" fill="#FFDCC8"/>
<path d="M301.6 70.2596C298.3 70.3596 295 70.6596 291.8 70.6596C281.4 70.7596 271 70.6596 260.7 70.6596C258.5 70.6596 256.3 70.6596 254.2 70.8596C251.8 71.0596 250 71.9596 249.4 74.5596C248.7 77.8596 246.5 78.9596 243.4 78.8596C236.6 78.8596 229.7 78.8596 222.9 78.8596C222.6 84.7596 222.6 90.7596 223.3 96.6596C229.9 96.5596 236.4 96.5596 243 96.4596C246.4 96.4596 248.9 97.4596 249.3 101.26C249.6 104.16 251.6 105.46 254.4 105.56C256.3 105.66 258.2 105.66 260.1 105.66C269.1 105.66 278.1 105.66 287.1 105.66C290.1 105.66 293.1 105.76 296.1 105.76C298.1 105.86 300 106.46 300.6 108.56C301.8 112.86 305 113.66 308.8 113.66C316.2 113.66 323.6 113.76 330.9 113.76L331 114.06C334.4 105.26 338.8 96.7596 341.5 87.7596C342.4 86.3596 343.4 85.0596 344 83.5596C345.5 80.2596 349.5 80.5596 351.7 82.1596C353.6 83.5596 354.3 85.5596 355 87.6596C354.2 91.9596 352.6 96.0596 350.9 100.06C349.9 102.26 348.9 104.56 348.1 106.86C346.8 110.96 348.2 113.06 352.6 113.36C355.8 113.56 359.1 113.46 362.4 113.46C373.5 113.66 384.7 112.96 395.8 113.86C399.1 113.76 402.3 113.56 405.6 113.56C428 113.56 450.3 113.56 472.7 113.56C473.3 104.86 473.3 96.1596 472.8 87.4596C473.4 79.2596 473.3 70.9596 472.8 62.7596C471.2 62.6596 469.5 62.5596 467.9 62.5596C415.6 62.5596 363.4 62.5596 311.1 62.5596C309.2 62.5596 307.3 62.6596 305.4 62.8596C303.6 63.0596 302.4 64.1596 302 65.9596C301.8 67.5596 301.8 68.9596 301.6 70.2596Z" fill="#2E5BAA"/>
<path d="M331 113.959L331.1 114.259C334.6 115.159 337.2 117.559 339.8 119.959C348.3 127.959 356.8 135.859 365.3 143.859C367.5 145.859 369.4 148.259 372.3 149.259C374.8 153.159 374.2 156.759 371.4 160.459C367.9 165.259 364.7 170.259 361.3 175.159C359.1 178.259 356.4 180.159 352.4 179.259C339.4 166.759 326.4 154.359 313.3 141.859C310.1 138.459 310 137.159 313.3 133.359C319.2 126.759 325.2 120.359 331 113.959Z" fill="#FFC83C"/>
<path d="M98 181.26C114.2 188.66 130.3 196.06 146.5 203.36C149.5 204.66 152.2 206.66 155.7 206.36L155.6 206.26C156.1 206.76 156.5 207.26 157 207.86C157.7 208.26 158.3 208.76 159.1 209.16C163.5 211.26 165.7 214.66 165.6 219.56C165.6 220.66 165.8 221.76 165.9 222.86C165.8 226.86 165.7 230.86 165.6 234.76C165.6 237.96 165.4 241.16 164 244.06C161 243.36 158.6 241.36 156.1 239.76C138.3 228.36 120.6 216.96 102.8 205.56C100.3 203.96 97.7 202.36 95.1 200.86C95 196.36 94.8 191.76 94.7 187.26C94.7 184.66 95.6 182.56 98 181.26Z" fill="#FFC83C"/>
<path d="M63.1 499.36C59.6 497.16 55.7 495.96 51.9 494.56C43.8 491.46 35.7 488.36 27.5 485.36C24.7 484.36 22 482.96 18.9 483.26C16.4 481.06 15.8 478.36 16.6 475.16C17.7 470.36 18.6 465.56 19.7 460.86C21.2 454.36 21.7 453.96 29 453.16C41.7 457.96 54.5 462.76 67.3 467.56C69.8 468.56 72.4 469.36 75 470.26C75.9 471.96 76.6 473.76 75.8 475.76C72.7 483.66 70.5 491.86 66.3 499.26C65.1 499.26 64.1 499.26 63.1 499.36Z" fill="#FFC83C"/>
<path d="M372.4 149.26C369.5 148.16 367.6 145.86 365.4 143.86C356.9 135.96 348.4 127.96 339.9 119.96C337.3 117.56 334.7 115.16 331.2 114.26C334.6 105.46 339 96.9596 341.7 87.9596C342.6 86.5596 343.6 85.2596 344.2 83.7596C345.7 80.4596 349.7 80.7596 351.9 82.3596C353.8 83.7596 354.5 85.7596 355.2 87.8596C354.4 92.1596 352.8 96.2596 351.1 100.26C350.1 102.46 349.1 104.76 348.3 107.06C347 111.16 348.4 113.26 352.8 113.56C356 113.76 359.3 113.66 362.6 113.66C373.7 113.86 384.9 113.16 396 114.06C389.4 124.36 382.8 134.66 376.2 144.86C375.1 146.56 373.6 147.86 372.4 149.26Z" fill="#FFDCC8"/>
<path d="M472.8 113.86C473.4 105.16 473.4 96.4596 472.9 87.7596C473.5 79.5596 473.4 71.2596 472.9 63.0596C473.9 59.8596 475.2 56.9596 479.1 56.7596C483 56.5596 484.7 59.1596 486.1 62.1596C486.2 62.3596 486.4 62.6596 486.5 62.8596C486.3 64.7596 485.9 66.6596 485.9 68.4596C486.1 83.6596 486.3 98.7596 486.5 113.96C485 117.16 483.4 120.36 479.2 120.06C475.5 119.76 473.8 116.96 472.8 113.86Z" fill="#FFC83C"/>
<path d="M486.4 113.96C486.2 98.7596 486 83.6596 485.8 68.4596C485.8 66.5596 486.2 64.6596 486.4 62.8596C500.7 70.8596 505.2 89.2596 496.8 103.76C494.3 108.06 491.1 111.76 486.4 113.96Z" fill="white"/>
<path d="M164 244.159C165.4 241.159 165.6 238.059 165.6 234.859C165.7 230.859 165.8 226.859 165.9 222.959C167.5 224.359 169.1 225.659 170.7 227.059C170.8 230.659 173.3 232.959 174.9 235.859C177.4 240.359 181.1 244.259 182.4 249.359C175.8 249.259 169.5 248.159 164 244.159Z" fill="#80641E"/>
<path d="M222.9 78.9596C222.6 84.8596 222.6 90.8596 223.3 96.7596C221.9 97.5596 220.6 98.8596 218.9 97.8596C217.6 97.1596 217.2 95.7596 217.2 94.3596C217.2 90.0596 217.2 85.7596 217.3 81.4596C217.3 80.0596 217.8 78.7596 219.2 78.0596C220.6 77.3596 221.7 78.2596 222.9 78.9596Z" fill="#FFC83C"/>
<path d="M157 207.86C156.5 207.36 156.1 206.86 155.6 206.26C156.1 206.86 156.5 207.36 157 207.86Z" fill="#E7E0B6"/>
</g>
<defs>
<clipPath id="clip0_46_190">
<rect width="501" height="564" fill="white" transform="translate(0 0.269531)"/>
</clipPath>
</defs>
</svg>
