<svg width="1612" height="961" viewBox="0 0 1612 961" fill="none" xmlns="http://www.w3.org/2000/svg">
<g clip-path="url(#clip0_46_650)">
<path d="M1505.4 106.67C1515.7 106.67 1525.9 106.67 1536.2 106.67C1538.1 106.67 1539.9 106.57 1541.8 106.17C1551.6 103.97 1557.8 94.3695 1555.7 84.7695C1553.8 75.6695 1545 68.5695 1534 70.7695C1532.9 70.9695 1531.7 71.8695 1530.7 71.2695C1529.7 70.6695 1529.7 69.2695 1529.2 68.1695C1529.1 67.8695 1528.9 67.5695 1528.8 67.1695C1524.8 58.7695 1516.8 54.3695 1508.6 54.5695C1499.8 54.7695 1492 60.2695 1488.9 68.3695C1488.6 69.1695 1488.3 69.8695 1488.1 70.6695C1487.8 71.7695 1487.1 72.4695 1485.8 72.3695C1485.2 72.3695 1484.6 72.3695 1484.1 72.3695C1479.8 72.6695 1477 74.9695 1475.3 78.7695C1474.8 79.9695 1474.7 81.3695 1474 82.3695C1473.1 83.4695 1471.4 83.1695 1470.1 83.5695C1464.8 85.0695 1461.4 89.5695 1461.4 94.9695C1461.5 100.27 1465 104.77 1470.3 106.17C1471.9 106.57 1473.5 106.67 1475.2 106.67C1485.1 106.67 1495.3 106.67 1505.4 106.67Z" fill="#E1E1E1"/>
<path d="M468.3 166.37C468.3 166.47 468.3 166.57 468.3 166.77C468.2 168.07 468.7 168.47 470 167.87C470.7 167.57 471.5 167.17 472.2 166.77C475.3 165.17 478.4 163.57 481.5 161.97C482.8 161.27 483.9 161.17 485.1 161.87C486.7 162.77 488.4 163.67 490 164.47C492.3 165.67 494.6 166.77 496.9 167.87C497.6 168.17 498.4 167.67 498.4 166.87C498.4 166.17 498.3 165.47 498.2 164.77C497.6 161.37 497.1 157.87 496.4 154.47C496 152.47 496.5 151.17 497.9 149.77C500.3 147.57 502.6 145.17 504.9 142.87C505.6 142.17 506.2 141.57 506.8 140.87C507.3 140.27 507.1 139.37 506.3 139.27C504.8 138.97 503.3 138.67 501.8 138.47C499.4 138.07 497 137.67 494.5 137.47C492.1 137.17 490.5 136.17 489.5 133.77C488.3 130.97 486.8 128.37 485.5 125.57C485.1 124.87 484.8 124.07 484.4 123.37C483.6 122.07 483 122.07 482.2 123.47C481.9 124.07 481.6 124.67 481.2 125.37C479.7 128.27 478.2 131.17 476.8 134.17C476 135.87 474.9 136.97 472.9 137.17C470.2 137.47 467.6 137.97 465 138.37C463.3 138.67 461.6 138.97 459.8 139.27C459.3 139.37 459.1 139.97 459.4 140.37C459.8 140.97 460.2 141.47 460.7 141.97C463 144.27 465.3 146.57 467.9 148.67C470 150.37 470.8 152.27 470.2 155.07C469.3 158.97 468.9 162.67 468.3 166.37Z" fill="#E1E1E1"/>
<path d="M1125.2 354.27C1137.2 354.27 1149.2 354.27 1161.2 354.27C1174 354.27 1187.2 343.87 1187.1 327.57C1187 314.27 1177.9 304.27 1166 301.87C1160.9 300.87 1161.8 300.97 1160.1 297.07C1155.8 287.27 1145.5 277.97 1130.6 278.17C1114 278.47 1103.4 290.17 1100.5 301.57C1100.3 302.37 1100.1 303.17 1099.9 303.97C1099.7 304.67 1099.2 305.17 1098.4 305.27C1097.3 305.47 1096.1 305.57 1095 305.87C1089.4 307.37 1086 310.97 1084.6 316.57C1084.8 319.57 1083.3 321.37 1080.5 322.17C1080.4 322.17 1080.3 322.27 1080.2 322.37C1074.3 325.77 1071.3 330.97 1071.5 337.67C1071.7 344.37 1075 349.37 1081 352.47C1083.5 353.77 1086.3 354.17 1089.1 354.17C1101.2 354.27 1113.2 354.27 1125.2 354.27Z" fill="#E1E1E1"/>
<path d="M231.2 616.769C239.4 616.769 247.5 616.769 255.7 616.769C255.9 616.769 256.2 616.769 256.4 616.769C258.5 616.869 260.6 616.569 262.6 616.069C271.5 613.869 277.6 606.069 277.5 596.869C277.5 587.769 271.2 579.769 262.4 577.869C258.2 576.969 258.8 576.669 257.2 573.569C252.5 564.569 245 559.769 234.9 560.269C224.9 560.769 217.9 566.069 214 575.269C213.6 576.169 213.3 577.069 213.2 577.969C212.9 579.569 212.1 580.269 210.4 580.469C205.3 581.269 202.3 584.369 201.4 589.369C201.1 590.969 200.4 591.869 199 592.469C198.6 592.669 198.2 592.869 197.8 593.169C193.4 596.069 191.3 600.169 192 605.369C192.7 610.869 195.9 614.469 201.2 616.069C202.9 616.569 204.6 616.669 206.4 616.569C214.6 616.769 222.9 616.769 231.2 616.769Z" fill="#E1E1E1"/>
<path d="M814.7 193.97C814.6 195.67 815.5 196.17 816.9 195.47C817.4 195.27 817.9 194.87 818.4 194.67C821.6 193.07 824.9 191.47 828 189.67C829.6 188.77 830.9 188.77 832.6 189.67C835.6 191.37 838.8 192.87 841.9 194.47C842.6 194.87 843.4 195.17 844.1 195.47C845 195.87 845.8 195.37 845.8 194.37C845.8 193.57 845.7 192.77 845.6 191.97C845.1 188.77 844.5 185.57 843.9 182.37C843.3 178.87 843.3 178.87 845.9 176.27C846.3 175.87 846.7 175.47 847.1 175.07C849.2 173.07 851.4 171.17 853.5 169.17C854.2 168.57 855.2 167.97 854.9 166.97C854.6 165.77 853.3 165.77 852.3 165.67C848.6 165.07 844.9 164.57 841.2 164.17C839.1 163.97 837.8 162.97 836.9 161.17C835.4 157.97 833.8 154.87 832.2 151.77C831.8 150.97 831.3 150.07 830.9 149.27C830.5 148.57 829.6 148.57 829.2 149.27C828.7 150.07 828.3 150.87 827.9 151.67C826.3 154.77 824.7 157.87 823.2 161.07C822.3 162.97 821 163.87 818.9 164.07C815.3 164.47 811.7 164.97 808.2 165.57C807.4 165.67 806.6 165.87 805.9 166.17C805.4 166.37 805.2 166.87 805.5 167.27C805.9 167.87 806.4 168.37 806.9 168.87C808.9 170.87 810.9 172.77 812.9 174.77C817.7 179.57 817.2 177.77 816.1 184.77C815.7 187.87 815.2 190.97 814.7 193.97Z" fill="#E1E1E1"/>
<path d="M635.8 238.969C635.7 241.469 636.4 241.969 638.3 241.069C639.4 240.569 640.4 239.969 641.4 239.469C642.4 238.869 643.5 238.369 644.5 237.769C646.8 236.369 649 236.169 651.4 237.669C652.9 238.569 654.4 239.369 656 240.169C657.2 240.769 658.4 242.169 659.7 241.169C660.8 240.369 660.1 238.769 659.9 237.569C659.6 235.569 659.3 233.669 658.9 231.669C658.4 229.169 659.1 227.169 661.2 225.569C662.6 224.569 663.8 223.269 665.1 222.069C666 221.169 667.6 220.469 667.2 219.069C666.8 217.369 664.9 217.869 663.6 217.669C661.2 217.269 658.8 216.969 656.3 216.569C654.8 216.369 653.8 215.469 653.2 214.069C652.2 211.869 651.1 209.669 650 207.469C649.6 206.769 649.3 205.969 648.9 205.269C648.4 204.369 647.6 204.369 647.1 205.369C646.7 206.069 646.3 206.769 646 207.569C645.1 209.469 644 211.269 643.2 213.169C642.3 215.469 640.6 216.569 638.2 216.869C636 217.069 633.8 217.469 631.6 217.769C630.8 217.869 630 218.069 629.2 218.369C628.6 218.569 628.3 219.369 628.7 219.769C629.4 220.569 630.1 221.369 630.8 222.069C631.8 223.069 632.9 223.869 633.9 224.869C637.9 228.969 637.6 227.569 636.7 233.669C636.5 235.569 636.1 237.469 635.8 238.969Z" fill="#E1E1E1"/>
<path d="M1412.3 821.369C1415.4 821.369 1418.6 821.369 1421.7 821.369C1436.3 821.369 1450.9 821.469 1465.4 821.369C1481.9 821.269 1497.5 806.569 1493.9 786.369C1490.7 768.469 1472.7 758.669 1456.6 763.469C1455.4 763.869 1454.1 764.769 1452.9 764.269C1451.5 763.669 1451.7 761.869 1451.2 760.669C1445.5 744.169 1428.9 733.769 1411 737.369C1396.9 740.169 1387.9 748.869 1383.6 762.469C1383.3 763.369 1383.1 764.269 1382.8 765.169C1382.6 765.669 1382.2 765.869 1381.7 765.869C1380.9 765.869 1380.1 765.669 1379.3 765.669C1373.9 765.469 1369.2 767.369 1365.6 771.369C1363 774.269 1361.7 777.669 1361.2 781.469C1361 783.169 1360.7 783.469 1359 783.569C1357.4 783.669 1355.7 783.669 1354.1 784.069C1346.5 785.969 1339.9 792.469 1339.8 802.169C1339.6 811.869 1346.1 818.669 1353.5 820.769C1355.7 821.369 1357.8 821.569 1360.1 821.569C1377.6 821.369 1394.9 821.369 1412.3 821.369Z" fill="#E1E1E1"/>
<path d="M1499.7 642.07C1499.6 643.87 1500.2 644.27 1501.5 643.67C1502.3 643.27 1503 642.87 1503.8 642.47C1504.6 642.07 1505.3 641.67 1506 641.27C1507.7 640.27 1509.3 640.17 1511.1 641.17C1512.2 641.87 1513.3 642.47 1514.5 642.97C1515.4 643.37 1516.3 644.47 1517.2 643.77C1518 643.17 1517.5 641.97 1517.4 641.07C1517.2 639.67 1516.9 638.17 1516.7 636.77C1516.4 634.87 1516.9 633.47 1518.4 632.27C1519.4 631.47 1520.3 630.57 1521.2 629.67C1521.8 629.07 1523 628.47 1522.7 627.47C1522.4 626.27 1521 626.57 1520.1 626.37C1518.3 626.07 1516.6 625.87 1514.8 625.57C1513.7 625.37 1513 624.77 1512.5 623.77C1511.8 622.17 1511 620.57 1510.2 618.87C1509.9 618.37 1509.7 617.77 1509.4 617.27C1509 616.57 1508.5 616.67 1508 617.37C1507.7 617.87 1507.4 618.47 1507.2 618.97C1506.5 620.37 1505.7 621.67 1505.2 623.07C1504.5 624.77 1503.3 625.57 1501.5 625.77C1499.9 625.97 1498.3 626.17 1496.7 626.37C1496.1 626.47 1495.5 626.57 1495 626.77C1494.6 626.87 1494.4 627.47 1494.6 627.87C1495.1 628.47 1495.6 629.07 1496.2 629.57C1496.9 630.27 1497.8 630.87 1498.5 631.57C1501.5 634.57 1501.2 633.57 1500.5 638.07C1500.2 639.57 1499.9 640.97 1499.7 642.07Z" fill="#E1E1E1"/>
<path d="M900.6 574.569C912.6 574.569 924.6 574.569 936.6 574.569C949.4 574.569 962.6 564.169 962.5 547.869C962.4 534.569 953.3 524.569 941.4 522.169C936.3 521.169 937.2 521.269 935.5 517.369C931.2 507.569 920.9 498.269 906 498.469C889.4 498.769 878.8 510.469 875.9 521.869C875.7 522.669 875.5 523.469 875.3 524.269C875.1 524.969 874.6 525.469 873.8 525.569C872.7 525.769 871.5 525.869 870.4 526.169C864.8 527.669 861.4 531.269 860 536.869C860.2 539.869 858.7 541.669 855.9 542.469C855.8 542.469 855.7 542.569 855.6 542.669C849.7 546.069 846.7 551.269 846.9 557.969C847.1 564.669 850.4 569.669 856.4 572.769C858.9 574.069 861.7 574.469 864.5 574.469C876.6 574.569 888.6 574.569 900.6 574.569Z" fill="#E1E1E1"/>
<path d="M864.3 361.57C864.2 363.27 865.1 363.77 866.5 363.07C867 362.87 867.5 362.47 868 362.27C871.2 360.67 874.5 359.07 877.6 357.27C879.2 356.37 880.5 356.37 882.2 357.27C885.2 358.97 888.4 360.47 891.5 362.07C892.2 362.47 893 362.77 893.7 363.07C894.6 363.47 895.4 362.97 895.4 361.97C895.4 361.17 895.3 360.37 895.2 359.57C894.7 356.37 894.1 353.17 893.5 349.97C892.9 346.47 892.9 346.47 895.5 343.87C895.9 343.47 896.3 343.07 896.7 342.67C898.8 340.67 901 338.77 903.1 336.77C903.8 336.17 904.8 335.57 904.5 334.57C904.2 333.37 902.9 333.37 901.9 333.27C898.2 332.67 894.5 332.17 890.8 331.77C888.7 331.57 887.4 330.57 886.5 328.77C885 325.57 883.4 322.47 881.8 319.37C881.4 318.57 880.9 317.67 880.5 316.87C880.1 316.17 879.2 316.17 878.8 316.87C878.3 317.67 877.9 318.47 877.5 319.27C875.9 322.37 874.3 325.47 872.8 328.67C871.9 330.57 870.6 331.47 868.5 331.67C864.9 332.07 861.3 332.57 857.8 333.17C857 333.27 856.2 333.47 855.5 333.77C855 333.97 854.8 334.47 855.1 334.87C855.5 335.47 856 335.97 856.5 336.47C858.5 338.47 860.5 340.37 862.5 342.37C867.3 347.17 866.8 345.37 865.7 352.37C865.3 355.47 864.8 358.57 864.3 361.57Z" fill="#E1E1E1"/>
<path d="M1252.6 109.87C1252.6 109.97 1252.6 110.07 1252.6 110.07C1252.5 110.87 1252.9 111.17 1253.7 110.77C1254.2 110.57 1254.6 110.37 1255.1 110.07C1257.1 109.07 1259.1 108.07 1261 106.97C1261.8 106.57 1262.5 106.47 1263.3 106.97C1264.3 107.57 1265.4 108.07 1266.4 108.67C1267.8 109.37 1269.3 110.17 1270.8 110.87C1271.3 111.07 1271.7 110.77 1271.7 110.27C1271.7 109.87 1271.6 109.37 1271.6 108.97C1271.2 106.77 1270.9 104.57 1270.5 102.37C1270.2 101.17 1270.6 100.27 1271.5 99.3696C1273 97.9696 1274.5 96.4696 1275.9 94.9696C1276.3 94.5696 1276.7 94.1696 1277.1 93.6696C1277.4 93.2696 1277.3 92.7696 1276.8 92.6696C1275.9 92.4696 1274.9 92.2696 1274 92.1696C1272.5 91.9696 1270.9 91.6696 1269.4 91.5696C1267.9 91.3696 1266.8 90.7696 1266.2 89.2696C1265.4 87.4696 1264.5 85.7696 1263.6 84.0696C1263.4 83.5696 1263.1 83.1696 1262.9 82.6696C1262.4 81.8696 1262 81.8696 1261.5 82.7696C1261.3 83.1696 1261.1 83.5696 1260.9 83.9696C1260 85.8696 1259 87.6696 1258.1 89.5696C1257.6 90.6696 1256.9 91.3696 1255.6 91.4696C1253.9 91.6696 1252.2 91.9696 1250.5 92.2696C1249.4 92.4696 1248.3 92.6696 1247.2 92.8696C1246.9 92.9696 1246.8 93.2696 1246.9 93.5696C1247.1 93.9696 1247.4 94.2696 1247.7 94.5696C1249.1 96.0696 1250.6 97.4696 1252.3 98.7696C1253.6 99.8696 1254.2 101.07 1253.7 102.87C1253.2 105.17 1252.9 107.57 1252.6 109.87Z" fill="#E1E1E1"/>
<path d="M318.8 354.469C336.6 354.469 354.5 354.469 372.3 354.469C391.3 354.469 410.9 338.969 410.8 314.869C410.7 295.069 397.1 280.269 379.4 276.669C371.8 275.169 373.2 275.369 370.7 269.569C364.3 255.069 349.1 241.169 326.9 241.569C302.2 242.069 286.6 259.369 282.1 276.269C281.8 277.469 281.5 278.569 281.1 279.769C280.8 280.869 280 281.469 278.9 281.769C277.2 282.069 275.5 282.269 273.8 282.769C265.6 285.069 260.4 290.269 258.4 298.669C258.7 303.169 256.5 305.769 252.4 306.969C252.2 306.969 252.1 307.169 251.9 307.169C243.2 312.269 238.7 319.969 239 329.869C239.3 339.769 244.1 347.269 253.1 351.869C256.9 353.769 260.9 354.469 265.2 354.469C283.1 354.369 301 354.469 318.8 354.469Z" fill="#E1E1E1"/>
<path d="M173.5 102.77C180.5 102.77 187.5 102.77 194.5 102.77C201.9 102.77 209.6 96.6696 209.6 87.2696C209.6 79.5696 204.2 73.7696 197.3 72.2696C194.3 71.6696 194.9 71.7696 193.9 69.4696C191.4 63.7696 185.4 58.3696 176.7 58.4696C167 58.6696 160.9 65.4696 159.2 72.0696C159.1 72.5696 159 72.9696 158.8 73.4696C158.7 73.8696 158.4 74.1696 157.9 74.2696C157.2 74.3696 156.6 74.4696 155.9 74.6696C152.7 75.5696 150.6 77.6696 149.9 80.8696C150 82.6696 149.2 83.6696 147.5 84.0696C147.4 84.0696 147.4 84.1696 147.3 84.1696C143.9 86.1696 142.1 89.1696 142.2 93.0696C142.3 96.9696 144.2 99.8696 147.7 101.67C149.2 102.47 150.8 102.67 152.4 102.67C159.6 102.67 166.6 102.77 173.5 102.77Z" fill="#E1E1E1"/>
<path d="M586.2 715.07C590.3 715.07 594.5 715.07 598.6 715.07C617.7 715.07 636.9 715.17 656 715.07C677.6 714.87 698.1 695.57 693.4 669.07C689.2 645.57 665.5 632.67 644.4 638.97C642.8 639.47 641.1 640.77 639.6 640.07C637.8 639.27 638 636.97 637.4 635.27C629.9 613.67 608.2 599.97 584.6 604.67C566.1 608.27 554.3 619.67 548.6 637.57C548.2 638.77 547.9 639.87 547.5 641.07C547.3 641.67 546.7 642.07 546.1 641.97C545 641.97 544 641.77 542.9 641.67C535.8 641.47 529.7 643.87 524.8 649.17C521.4 652.97 519.6 657.47 519.1 662.47C518.8 664.77 518.5 665.07 516.2 665.17C514.1 665.37 511.9 665.37 509.8 665.87C499.9 668.37 491.2 676.87 491 689.67C490.8 702.37 499.3 711.27 509.1 714.07C511.9 714.87 514.8 715.07 517.7 715.07C540.5 715.07 563.4 715.07 586.2 715.07Z" fill="#E1E1E1"/>
<path d="M1234.7 520.77C1234.6 523.27 1235.3 523.77 1237.2 522.87C1238.3 522.37 1239.3 521.77 1240.3 521.27C1241.3 520.67 1242.4 520.17 1243.4 519.57C1245.7 518.17 1247.9 517.97 1250.3 519.47C1251.8 520.37 1253.3 521.17 1254.9 521.97C1256.1 522.57 1257.3 523.97 1258.6 522.97C1259.7 522.17 1259 520.57 1258.8 519.37C1258.5 517.37 1258.2 515.47 1257.8 513.47C1257.3 510.97 1258 508.97 1260.1 507.37C1261.5 506.37 1262.7 505.07 1264 503.87C1264.9 502.97 1266.5 502.27 1266.1 500.87C1265.7 499.17 1263.8 499.67 1262.5 499.47C1260.1 499.07 1257.7 498.77 1255.2 498.37C1253.7 498.17 1252.7 497.27 1252.1 495.87C1251.1 493.67 1250 491.47 1248.9 489.27C1248.5 488.57 1248.2 487.77 1247.8 487.07C1247.3 486.17 1246.5 486.17 1246 487.17C1245.6 487.87 1245.2 488.57 1244.9 489.37C1244 491.27 1242.9 493.07 1242.1 494.97C1241.2 497.27 1239.5 498.37 1237.1 498.67C1234.9 498.87 1232.7 499.27 1230.5 499.57C1229.7 499.67 1228.9 499.87 1228.1 500.17C1227.5 500.37 1227.2 501.17 1227.6 501.57C1228.3 502.37 1229 503.17 1229.7 503.87C1230.7 504.87 1231.8 505.67 1232.8 506.67C1236.8 510.77 1236.5 509.37 1235.6 515.47C1235.4 517.27 1235 519.27 1234.7 520.77Z" fill="#E1E1E1"/>
<path d="M649 491.969C649 491.969 649.1 491.969 649 491.969C649 492.169 649 492.269 649 492.469C648.9 494.269 649.6 494.769 651.3 493.969C652.3 493.569 653.3 492.969 654.3 492.469C658.5 490.269 662.8 488.169 666.9 485.969C668.6 485.069 670.1 484.969 671.8 485.869C674 487.069 676.2 488.269 678.5 489.469C681.6 491.069 684.7 492.669 687.8 494.169C688.8 494.669 689.8 493.869 689.8 492.869C689.8 491.969 689.6 490.969 689.5 490.069C688.7 485.369 688.1 480.669 687.1 476.069C686.5 473.469 687.2 471.569 689.2 469.769C692.4 466.769 695.5 463.569 698.7 460.469C699.6 459.569 700.5 458.669 701.3 457.669C702 456.769 701.7 455.669 700.6 455.469C698.6 455.069 696.6 454.669 694.5 454.369C691.2 453.869 687.9 453.369 684.6 452.969C681.3 452.569 679.1 451.169 677.8 447.969C676.2 444.169 674.2 440.569 672.4 436.869C671.9 435.869 671.4 434.869 670.9 433.869C669.9 432.069 669 432.069 667.9 434.069C667.4 434.869 667 435.769 666.6 436.569C664.6 440.569 662.6 444.469 660.7 448.469C659.6 450.769 658.1 452.269 655.4 452.569C651.8 452.969 648.2 453.669 644.6 454.269C642.3 454.669 639.9 455.069 637.6 455.569C636.9 455.669 636.7 456.469 637 457.069C637.5 457.869 638.1 458.569 638.8 459.269C641.9 462.469 645 465.569 648.5 468.269C651.3 470.569 652.5 473.169 651.6 476.969C650.4 481.869 649.8 486.969 649 491.969Z" fill="#E1E1E1"/>
<path d="M169.6 898.57C173.7 898.57 177.9 898.57 182 898.57C201.1 898.57 220.3 898.67 239.4 898.57C261 898.37 281.5 879.07 276.8 852.57C272.6 829.07 248.9 816.17 227.8 822.47C226.2 822.97 224.5 824.27 223 823.57C221.2 822.77 221.4 820.47 220.8 818.77C213.3 797.17 191.6 783.47 168 788.17C149.5 791.77 137.7 803.17 132 821.07C131.6 822.27 131.3 823.37 130.9 824.57C130.7 825.17 130.1 825.57 129.5 825.47C128.4 825.47 127.4 825.27 126.3 825.17C119.2 824.97 113.1 827.37 108.2 832.67C104.8 836.47 103 840.97 102.5 845.97C102.2 848.27 101.9 848.57 99.6 848.67C97.5 848.87 95.3 848.87 93.2 849.37C83.3 851.87 74.6 860.37 74.4 873.17C74.2 885.87 82.7 894.77 92.5 897.57C95.3 898.37 98.2 898.57 101.1 898.57C123.9 898.57 146.7 898.57 169.6 898.57Z" fill="#E1E1E1"/>
<path d="M1020.9 664.77C1020.8 667.27 1021.5 667.77 1023.4 666.87C1024.5 666.37 1025.5 665.77 1026.5 665.27C1027.5 664.67 1028.6 664.17 1029.6 663.57C1031.9 662.17 1034.1 661.97 1036.5 663.47C1038 664.37 1039.5 665.17 1041.1 665.97C1042.3 666.57 1043.5 667.97 1044.8 666.97C1045.9 666.17 1045.2 664.57 1045 663.37C1044.7 661.37 1044.4 659.47 1044 657.47C1043.5 654.97 1044.2 652.97 1046.3 651.37C1047.7 650.37 1048.9 649.07 1050.2 647.87C1051.1 646.97 1052.7 646.27 1052.3 644.87C1051.9 643.17 1050 643.67 1048.7 643.47C1046.3 643.07 1043.9 642.77 1041.4 642.37C1039.9 642.17 1038.9 641.27 1038.3 639.87C1037.3 637.67 1036.2 635.47 1035.1 633.27C1034.7 632.57 1034.4 631.77 1034 631.07C1033.5 630.17 1032.7 630.17 1032.2 631.17C1031.8 631.87 1031.4 632.57 1031.1 633.37C1030.2 635.27 1029.1 637.07 1028.3 638.97C1027.4 641.27 1025.7 642.37 1023.3 642.67C1021.1 642.87 1018.9 643.27 1016.7 643.57C1015.9 643.67 1015.1 643.87 1014.3 644.17C1013.7 644.37 1013.4 645.17 1013.8 645.57C1014.5 646.37 1015.2 647.17 1015.9 647.87C1016.9 648.87 1018 649.67 1019 650.67C1023 654.77 1022.7 653.37 1021.8 659.47C1021.6 661.37 1021.2 663.27 1020.9 664.77Z" fill="#E1E1E1"/>
<path d="M53.6 370.17C53.5 372.67 54.2 373.17 56.1 372.27C57.2 371.77 58.2 371.17 59.2 370.67C60.2 370.07 61.3 369.57 62.3 368.97C64.6 367.57 66.8 367.37 69.2 368.87C70.7 369.77 72.2 370.57 73.8 371.37C75 371.97 76.2 373.37 77.5 372.37C78.6 371.57 77.9 369.97 77.7 368.77C77.4 366.77 77.1 364.87 76.7 362.87C76.2 360.37 76.9 358.37 79 356.77C80.4 355.77 81.6 354.47 82.9 353.27C83.8 352.37 85.4 351.67 85 350.27C84.6 348.57 82.7 349.07 81.4 348.87C79 348.47 76.6 348.17 74.1 347.77C72.6 347.57 71.6 346.67 71 345.27C70 343.07 68.9 340.87 67.8 338.67C67.4 337.97 67.1 337.17 66.7 336.47C66.2 335.57 65.4 335.57 64.9 336.57C64.5 337.27 64.1 337.97 63.8 338.77C62.9 340.67 61.8 342.47 61 344.37C60.1 346.67 58.4 347.77 56 348.07C53.8 348.27 51.6 348.67 49.4 348.97C48.6 349.07 47.8 349.27 47 349.57C46.4 349.77 46.1 350.57 46.5 350.97C47.2 351.77 47.9 352.57 48.6 353.27C49.6 354.27 50.7 355.07 51.7 356.07C55.7 360.17 55.4 358.77 54.5 364.87C54.2 366.77 53.8 368.67 53.6 370.17Z" fill="#E1E1E1"/>
<path d="M971.1 854.969C983.1 854.969 995.1 854.969 1007.1 854.969C1019.9 854.969 1033.1 844.569 1033 828.269C1032.9 814.969 1023.8 804.969 1011.9 802.569C1006.8 801.569 1007.7 801.669 1006 797.769C1001.7 787.969 991.4 778.669 976.5 778.869C959.9 779.169 949.3 790.869 946.4 802.269C946.2 803.069 946 803.869 945.8 804.669C945.6 805.369 945.1 805.869 944.3 805.969C943.2 806.169 942 806.269 940.9 806.569C935.3 808.069 931.9 811.669 930.5 817.269C930.7 820.269 929.2 822.069 926.4 822.869C926.3 822.869 926.2 822.969 926.1 823.069C920.2 826.469 917.2 831.669 917.4 838.369C917.6 845.069 920.9 850.069 926.9 853.169C929.4 854.469 932.2 854.869 935 854.869C947.1 854.969 959.1 854.969 971.1 854.969Z" fill="#E1E1E1"/>
</g>
<defs>
<clipPath id="clip0_46_650">
<rect width="1611.1" height="960" fill="white" transform="translate(0 0.269531)"/>
</clipPath>
</defs>
</svg>
