<svg width="48" height="48" viewBox="0 0 48 48" fill="none" xmlns="http://www.w3.org/2000/svg">
<g clip-path="url(#clip0_33_57)">
<path d="M39.7143 3.85718H8.28571C7.14907 3.85718 6.05898 4.30871 5.25526 5.11243C4.45153 5.91616 4 7.00625 4 8.14289L4 39.5715C4 40.7081 4.45153 41.7982 5.25526 42.6019C6.05898 43.4057 7.14907 43.8572 8.28571 43.8572H20.5402V30.2581H14.9152V23.8572H20.5402V18.9786C20.5402 13.4295 23.8438 10.3643 28.9036 10.3643C31.3268 10.3643 33.8607 10.7965 33.8607 10.7965V16.2429H31.0688C28.3179 16.2429 27.4598 17.95 27.4598 19.7009V23.8572H33.6009L32.6188 30.2581H27.4598V43.8572H39.7143C40.8509 43.8572 41.941 43.4057 42.7447 42.6019C43.5485 41.7982 44 40.7081 44 39.5715V8.14289C44 7.00625 43.5485 5.91616 42.7447 5.11243C41.941 4.30871 40.8509 3.85718 39.7143 3.85718Z" fill="white"/>
</g>
<defs>
<clipPath id="clip0_33_57">
<rect width="40" height="45.7143" fill="white" transform="translate(4 1)"/>
</clipPath>
</defs>
</svg>
