<svg width="480" height="481" viewBox="0 0 480 481" fill="none" xmlns="http://www.w3.org/2000/svg">
<g clip-path="url(#clip0_36_83)">
<path d="M78.2977 227.261C78.2977 227.261 78.2581 227.261 78.2283 227.261L77.8218 227.459C78.7539 228.877 80.509 231.565 82.7402 234.966C83.0972 234.074 83.4541 233.172 83.8111 232.249C85.12 228.858 86.5182 225.635 87.9759 222.58L84.1879 224.405L78.2977 227.271V227.261Z" fill="#F0F0F0"/>
<path d="M224.104 224.246L220.297 222.332C220.931 223.978 221.526 225.634 222.101 227.31C222.924 226.061 223.599 225.02 224.104 224.246Z" fill="#F0F0F0"/>
<path d="M434.981 142.055C434.981 142.055 436.468 167.541 392.897 158.675C386.749 157.426 381.791 157.594 377.675 158.715C376.495 158.566 375.246 158.447 373.917 158.388C363.486 157.882 355.751 155.254 350.198 152.249C357.833 138.266 345.547 134.002 343.346 133.367C344.625 130.363 345.865 127.387 346.698 125.275C347.699 122.726 348.205 120.356 348.413 118.294C352.161 117.51 354.878 115.239 354.878 112.552C354.878 109.259 350.793 106.582 345.716 106.522C345.319 105.57 344.972 104.598 344.665 103.597C344.923 102.625 344.923 101.544 344.258 100.552C344.258 100.552 344.09 100.393 343.802 100.165C343.614 99.2332 343.455 98.301 343.316 97.3688C345.547 97.4581 357.308 97.1705 360.263 81.7397C360.263 81.7397 358.875 81.8686 352.984 82.0174C352.984 82.0174 362.424 75.3036 363.01 61.9752C363.01 61.9752 351.368 73.9748 337.267 67.2411C337.267 67.2411 346.202 63.2545 348.046 57.9787C348.046 57.9787 324.981 62.6298 309.224 57.9787C293.468 53.3277 280.775 81.5116 280.775 81.5116C280.775 81.5116 263.402 97.468 283.671 110.112C282.58 112.145 282.907 115.408 285.337 119.94C291.078 130.63 296.532 127.12 296.532 127.12C298.426 130.263 300.478 133.129 303.79 136.184C298.485 141.033 298.218 146.874 299.923 152.249C299.388 152.686 298.842 153.142 298.297 153.618C298.237 153.667 298.188 153.717 298.138 153.766C292 157.535 283.978 161.75 275.034 164.665C255.132 171.151 266.476 190.36 260.338 209.748C259.257 213.169 258.444 217.056 257.928 221.142C255.211 233.281 257.71 243.773 258.771 247.373C258.632 258.311 259.386 269.21 261.062 279.107V279.166C262.708 290.412 265.713 299.635 269.719 307.311C274.171 316.295 279.803 323.049 286.338 328.374C282.233 358.512 277.79 393.697 278.385 401.115C279.07 409.733 278.633 447.427 277.889 476.226C267.121 477.713 256.124 478.507 244.938 478.507C237.749 478.507 230.639 478.17 223.609 477.545C217.431 453.972 210.747 428.605 208.467 420.393C209.121 418.807 209.21 416.536 208.467 413.283C207.763 410.169 206.979 407.948 206.027 406.371C206.186 406.46 206.325 406.569 206.454 406.718C206.454 406.718 206.355 404.963 206.166 401.948C225.136 361.913 237.571 302.947 228.299 251.409C235.389 243.267 241.596 235.214 242.638 230.94C244.542 223.096 242.509 218.643 238.741 214.805C233.792 208.012 218.145 193.821 206.434 183.845C207.039 180.82 206.533 176.417 202.745 170.358C194.188 156.642 215.507 133.923 192.571 96.2085C191.282 93.293 189.368 91.022 186.949 89.7824C175.823 84.0801 178.55 78.2688 163.378 75.2739C154.077 73.4392 145.529 74.3615 138.27 79.1018C138.27 79.1018 116.257 89.1278 116.038 119.801C115.81 150.474 86.2604 148.144 80.6875 162.692C75.1147 177.24 87.6586 190.033 87.6586 190.033C87.6586 190.033 86.7661 179.223 89.8996 178.132C92.567 177.21 88.1444 187.801 94.0247 191.729C82.5716 200.416 71.5845 209.43 68.094 214.22C61.5494 219.397 56.9384 223.77 59.5463 234.54C60.5677 238.775 66.6463 246.688 73.6372 254.731C58.2771 283.47 39.4761 297.324 15.0824 302.431C9.78721 282.687 6.94128 261.931 6.94128 240.5C6.94128 109.051 113.49 2.49341 244.928 2.49341C336.583 2.49341 416.12 54.3095 455.884 130.244L434.981 142.055Z" fill="#F0F0F0"/>
<path d="M187.117 432.909C176.229 445.92 164.875 452.009 155.009 447.784C120.352 432.948 129.991 424.043 115.82 427.673C116.098 432.304 116.118 436.568 115.92 440.525C139.877 456.015 166.789 467.301 195.635 473.38C190.469 462.729 186.78 450.729 187.117 432.909Z" fill="#F0F0F0"/>
<path d="M434.802 335.901C421.287 352.879 409.962 363.738 398.608 368.686C403.715 381.251 407.434 391.168 408.049 394.818C408.515 397.614 409.675 403.316 411.252 410.715C439.899 382.719 461.497 347.553 473.158 308.114C458.492 309.542 452.126 314.143 434.802 335.901Z" fill="#F0F0F0"/>
<path d="M355.235 362.429C352.022 360.684 348.473 358.641 344.516 356.221C344.516 356.221 333.44 351.937 319.527 345.947C318.189 348.625 316.761 352.096 315.363 356.558C312.884 364.898 311.039 374.786 309.81 384.286C309.8 384.425 307.856 404.477 308.342 418.132C308.421 419.114 308.471 420.136 308.501 421.197V421.346C308.59 425.451 308.292 430.152 307.717 435.051C306.765 444.383 304.653 457.374 299.983 470.544C299.784 471.119 299.586 471.684 299.388 472.2V472.249C330.336 465 358.964 451.701 383.962 433.682C381.761 426.919 380.234 420.463 380.016 415.366C379.451 402.394 367.908 380.071 355.235 362.439V362.429Z" fill="#F0F0F0"/>
</g>
<defs>
<clipPath id="clip0_36_83">
<rect width="466.217" height="476.013" fill="white" transform="translate(6.94128 2.49341)"/>
</clipPath>
</defs>
</svg>
