<svg width="48" height="48" viewBox="0 0 48 48" fill="none" xmlns="http://www.w3.org/2000/svg">
<g clip-path="url(#clip0_33_58)">
<path d="M28.2946 19.2322V25.5804C28.2946 25.7411 28.1696 25.8661 28.0089 25.8661H26.9911C26.8929 25.8661 26.8036 25.8126 26.7589 25.7501L23.8482 21.8215V25.5893C23.8482 25.7501 23.7232 25.8751 23.5625 25.8751H22.5446C22.3839 25.8751 22.2589 25.7501 22.2589 25.5893V19.2411C22.2589 19.0804 22.3839 18.9554 22.5446 18.9554H23.5536C23.6429 18.9554 23.7411 19.0001 23.7857 19.0804L26.6964 23.009V19.2411C26.6964 19.0804 26.8214 18.9554 26.9821 18.9554H28C28.1607 18.9465 28.2946 19.0804 28.2946 19.2322ZM20.9732 18.9465H19.9554C19.7946 18.9465 19.6696 19.0715 19.6696 19.2322V25.5804C19.6696 25.7411 19.7946 25.8661 19.9554 25.8661H20.9732C21.1339 25.8661 21.2589 25.7411 21.2589 25.5804V19.2322C21.2589 19.0804 21.1339 18.9465 20.9732 18.9465ZM18.5179 24.2679H15.7411V19.2322C15.7411 19.0715 15.6161 18.9465 15.4554 18.9465H14.4375C14.2768 18.9465 14.1518 19.0715 14.1518 19.2322V25.5804C14.1518 25.6608 14.1786 25.7233 14.2321 25.7768C14.2857 25.8215 14.3482 25.8572 14.4286 25.8572H18.5089C18.6696 25.8572 18.7946 25.7322 18.7946 25.5715V24.5536C18.7946 24.4018 18.6696 24.2679 18.5179 24.2679ZM33.6518 18.9465H29.5714C29.4196 18.9465 29.2857 19.0715 29.2857 19.2322V25.5804C29.2857 25.7322 29.4107 25.8661 29.5714 25.8661H33.6518C33.8125 25.8661 33.9375 25.7411 33.9375 25.5804V24.5626C33.9375 24.4018 33.8125 24.2768 33.6518 24.2768H30.875V23.2054H33.6518C33.8125 23.2054 33.9375 23.0804 33.9375 22.9197V21.8929C33.9375 21.7322 33.8125 21.6072 33.6518 21.6072H30.875V20.5358H33.6518C33.8125 20.5358 33.9375 20.4108 33.9375 20.2501V19.2322C33.9286 19.0804 33.8036 18.9465 33.6518 18.9465ZM44 11.1518V36.6251C43.9911 40.6251 40.7143 43.8661 36.7054 43.8572H11.2321C7.23214 43.8483 3.99107 40.5626 4 36.5626V11.0893C4.00893 7.08934 7.29464 3.84827 11.2946 3.8572H36.7679C40.7679 3.86612 44.0089 7.14291 44 11.1518ZM38.5 22.0983C38.5 15.5804 31.9643 10.2768 23.9375 10.2768C15.9107 10.2768 9.375 15.5804 9.375 22.0983C9.375 27.9376 14.5536 32.8304 21.5536 33.759C23.2589 34.1251 23.0625 34.7501 22.6786 37.0447C22.6161 37.4108 22.3839 38.4822 23.9375 37.8304C25.4911 37.1786 32.3214 32.8929 35.3839 29.3751C37.4911 27.0536 38.5 24.7054 38.5 22.0983Z" fill="white"/>
</g>
<defs>
<clipPath id="clip0_33_58">
<rect width="40" height="45.7143" fill="white" transform="translate(4 1)"/>
</clipPath>
</defs>
</svg>
