<svg width="299" height="59" viewBox="0 0 299 59" fill="none" xmlns="http://www.w3.org/2000/svg">
<path d="M49.69 32.15L27.49 58.51L9.23999 44.91L34.7 20.12L49.69 32.15Z" fill="#2E5BAA"/>
<path d="M16.86 26.47L0 19.6L25.09 0L41.54 4.71L16.86 26.47Z" fill="#2E5BAA"/>
<path d="M87.18 18.38V22.12H72.56C71.26 22.12 70.32 22.36 69.73 22.83C69.14 23.3 68.84 23.91 68.84 24.65C68.84 24.97 68.9 25.28 69.03 25.59C69.16 25.9 69.38 26.17 69.71 26.41C70.03 26.65 70.46 26.84 71 26.98C71.53 27.12 72.23 27.19 73.07 27.19H79.75C81.69 27.19 83.29 27.38 84.53 27.74C85.77 28.11 86.75 28.59 87.47 29.18C88.19 29.77 88.68 30.45 88.95 31.21C89.22 31.97 89.35 32.73 89.35 33.49C89.35 34.4 89.18 35.23 88.84 35.99C88.5 36.75 87.97 37.41 87.23 37.97C86.5 38.53 85.56 38.97 84.42 39.28C83.28 39.6 81.89 39.76 80.26 39.76H64.37V36.02H80.43C81.78 36.02 82.78 35.77 83.41 35.28C84.04 34.78 84.36 34.14 84.36 33.36C84.36 33.02 84.29 32.69 84.15 32.36C84.01 32.03 83.77 31.75 83.43 31.5C83.09 31.26 82.63 31.06 82.06 30.91C81.48 30.76 80.76 30.69 79.88 30.69H73.25C71.33 30.69 69.77 30.51 68.56 30.15C67.35 29.79 66.4 29.32 65.71 28.72C65.02 28.13 64.54 27.46 64.27 26.72C64 25.98 63.87 25.24 63.87 24.5C63.87 23.61 64.03 22.79 64.36 22.04C64.68 21.29 65.21 20.64 65.92 20.09C66.64 19.54 67.56 19.11 68.69 18.81C69.82 18.5 71.17 18.35 72.75 18.35H87.2L87.18 18.38Z" fill="#323232"/>
<path d="M98.17 18.38L106.16 27.54L114.23 18.38H120.15L108.66 30.55V39.77H103.63V30.55L92.14 18.38H98.18H98.17Z" fill="#323232"/>
<path d="M123.65 39.78H118.33L127.16 21.97C127.72 20.74 128.51 19.78 129.51 19.07C130.51 18.36 131.97 18.01 133.88 18.01C135.99 18.01 137.58 18.44 138.63 19.29C139.69 20.15 140.21 21.27 140.21 22.67V35.32C140.21 35.68 140.34 35.97 140.61 36.19C140.88 36.41 141.22 36.52 141.65 36.52C142.44 36.52 142.97 36.22 143.26 35.63L150.19 21.97C150.75 20.74 151.53 19.78 152.54 19.07C153.54 18.36 155 18.01 156.91 18.01C159.02 18.01 160.61 18.44 161.66 19.29C162.72 20.15 163.24 21.27 163.24 22.67V39.79H158.21V22.85C158.21 22.47 158.08 22.17 157.81 21.95C157.54 21.73 157.2 21.62 156.77 21.62C156.4 21.62 156.09 21.7 155.82 21.87C155.55 22.04 155.35 22.26 155.21 22.54L148.28 36.2C147.72 37.43 146.93 38.39 145.91 39.1C144.9 39.81 143.43 40.16 141.51 40.16C139.4 40.16 137.82 39.73 136.78 38.88C135.74 38.02 135.22 36.89 135.22 35.47V22.86C135.22 22.48 135.08 22.18 134.8 21.96C134.52 21.74 134.17 21.63 133.74 21.63C133.35 21.63 133.02 21.71 132.77 21.88C132.52 22.05 132.32 22.27 132.18 22.55L123.64 39.79L123.65 39.78Z" fill="#323232"/>
<path d="M193.21 18.38V22.12H178.59C177.29 22.12 176.35 22.36 175.76 22.83C175.17 23.3 174.87 23.91 174.87 24.65C174.87 24.97 174.93 25.28 175.06 25.59C175.19 25.9 175.41 26.17 175.74 26.41C176.06 26.65 176.49 26.84 177.03 26.98C177.56 27.12 178.26 27.19 179.1 27.19H185.78C187.72 27.19 189.32 27.38 190.56 27.74C191.8 28.11 192.78 28.59 193.5 29.18C194.22 29.77 194.71 30.45 194.98 31.21C195.25 31.97 195.38 32.73 195.38 33.49C195.38 34.4 195.21 35.23 194.87 35.99C194.53 36.75 194 37.41 193.26 37.97C192.53 38.53 191.59 38.97 190.45 39.28C189.31 39.6 187.92 39.76 186.29 39.76H170.4V36.02H186.46C187.81 36.02 188.81 35.77 189.44 35.28C190.07 34.78 190.39 34.14 190.39 33.36C190.39 33.02 190.32 32.69 190.18 32.36C190.04 32.03 189.8 31.75 189.46 31.5C189.12 31.26 188.66 31.06 188.09 30.91C187.51 30.76 186.79 30.69 185.91 30.69H179.28C177.36 30.69 175.8 30.51 174.59 30.15C173.38 29.79 172.43 29.32 171.74 28.72C171.05 28.13 170.57 27.46 170.3 26.72C170.03 25.98 169.9 25.24 169.9 24.5C169.9 23.61 170.06 22.79 170.39 22.04C170.71 21.29 171.24 20.64 171.95 20.09C172.67 19.54 173.59 19.11 174.72 18.81C175.85 18.5 177.2 18.35 178.78 18.35H193.23L193.21 18.38Z" fill="#323232"/>
<path d="M206.94 18.38V27.44H209.69C210.9 27.44 211.89 27.41 212.67 27.36C213.45 27.31 214.09 27.19 214.59 27C215.1 26.81 215.53 26.54 215.88 26.19C216.23 25.84 216.61 25.37 217 24.78L221.35 18.38H226.72L222.24 25.04C221.59 25.99 220.9 26.78 220.17 27.42C219.44 28.05 218.48 28.56 217.3 28.94C217.98 29.07 218.57 29.24 219.07 29.46C219.58 29.68 220.05 29.96 220.49 30.28C220.93 30.61 221.34 31 221.74 31.45C222.13 31.9 222.54 32.44 222.97 33.05L227.58 39.77H222L217.65 33.43C217.26 32.86 216.87 32.41 216.51 32.07C216.14 31.73 215.68 31.47 215.12 31.28C214.56 31.09 213.85 30.97 213.01 30.92C212.17 30.87 211.07 30.84 209.71 30.84H206.96V39.78H201.97V18.38H206.96H206.94Z" fill="#323232"/>
<path d="M236.61 39.78H231.12L241.14 20.76C241.68 19.75 242.43 19.03 243.4 18.62C244.37 18.21 245.62 18 247.14 18C248.66 18 249.87 18.21 250.84 18.62C251.81 19.03 252.55 19.74 253.06 20.76L262.7 39.78H257.16L248.5 22.57C248.25 22.08 247.78 21.84 247.11 21.84C246.44 21.84 245.95 22.08 245.67 22.57L236.63 39.78H236.61Z" fill="#323232"/>
<path d="M272.91 39.78H267.92V22.66C267.92 21.27 268.46 20.14 269.53 19.28C270.6 18.42 272.25 18 274.47 18C276.44 18 277.94 18.35 278.97 19.06C280 19.77 280.81 20.73 281.4 21.96L289.73 35.62C289.9 35.87 290.12 36.08 290.41 36.25C290.69 36.42 291.07 36.5 291.55 36.5C292.09 36.5 292.5 36.39 292.8 36.17C293.1 35.95 293.24 35.66 293.24 35.3V18.38H298.27V35.47C298.27 36.89 297.73 38.02 296.64 38.88C295.56 39.74 293.91 40.16 291.72 40.16C290.73 40.16 289.87 40.07 289.12 39.89C288.37 39.71 287.73 39.45 287.18 39.1C286.63 38.75 286.16 38.33 285.76 37.85C285.36 37.36 285.03 36.82 284.75 36.2L276.42 22.54C276.05 21.93 275.46 21.62 274.65 21.62C274.09 21.62 273.66 21.73 273.36 21.95C273.06 22.17 272.92 22.47 272.92 22.85V39.77L272.91 39.78Z" fill="#323232"/>
</svg>
