<svg width="48" height="48" viewBox="0 0 48 48" fill="none" xmlns="http://www.w3.org/2000/svg">
<g clip-path="url(#clip0_88_266)">
<path d="M24.8281 23.9766L35.4531 34.6016C36.1875 35.3359 36.1875 36.5234 35.4531 37.25L33.6875 39.0156C32.9531 39.75 31.7656 39.75 31.0391 39.0156L23.5 31.4922L15.9687 39.0234C15.2344 39.7578 14.0469 39.7578 13.3203 39.0234L11.5469 37.2578C10.8125 36.5234 10.8125 35.3359 11.5469 34.6094L22.1719 23.9844C22.9062 23.2422 24.0937 23.2422 24.8281 23.9766ZM22.1719 8.97656L11.5469 19.6016C10.8125 20.3359 10.8125 21.5234 11.5469 22.25L13.3125 24.0156C14.0469 24.75 15.2344 24.75 15.9609 24.0156L23.4922 16.4844L31.0234 24.0156C31.7578 24.75 32.9453 24.75 33.6719 24.0156L35.4375 22.25C36.1719 21.5156 36.1719 20.3281 35.4375 19.6016L24.8125 8.97656C24.0937 8.24219 22.9062 8.24219 22.1719 8.97656Z" fill="white"/>
</g>
<defs>
<clipPath id="clip0_88_266">
<rect width="25" height="40" fill="white" transform="translate(11 4)"/>
</clipPath>
</defs>
</svg>
